<?xml version="1.0" encoding="UTF-8"?>
<svg version="1.1" xmlns="http://www.w3.org/2000/svg" width="512" height="512">
<path d="M0 0 C5.21416484 3.25968551 9.48535914 7.02445463 13.80500793 11.38450623 C14.49684677 12.07347488 15.18868561 12.76244354 15.90148926 13.47229004 C17.35128692 14.92005925 18.79735552 16.3715716 20.23982239 17.8266449 C22.44253056 20.04547223 24.66086283 22.24776824 26.88117981 24.44895935 C28.29425247 25.8640137 29.70639463 27.27999798 31.11750793 28.69700623 C31.77688858 29.35031418 32.43626923 30.00362213 33.1156311 30.67672729 C37.12995035 34.75281086 40.53515766 38.6126388 41.52766418 44.45091248 C41.51992981 45.16247498 41.51219543 45.87403748 41.50422668 46.60716248 C41.51196106 47.31872498 41.51969543 48.03028748 41.52766418 48.76341248 C40.30960193 55.92848455 35.2863966 60.38920012 30.35578918 65.27903748 C29.59503082 66.04266602 28.83427246 66.80629456 28.05046082 67.59306335 C26.44531123 69.2002487 24.83638972 70.80367465 23.22395325 72.40354919 C20.75914747 74.8522738 18.31077198 77.31660884 15.86360168 79.78294373 C14.2994587 81.34510463 12.73438553 82.90633485 11.16828918 84.46653748 C10.4379245 85.20297485 9.70755981 85.93941223 8.95506287 86.69816589 C8.26439728 87.379375 7.57373169 88.06058411 6.86213684 88.76243591 C6.26051727 89.3616687 5.65889771 89.96090149 5.03904724 90.57829285 C0.85711141 93.92606008 -3.39335561 94.56759262 -8.59342957 94.41184998 C-12.3626639 93.90756133 -15.07488073 92.69300096 -17.87077332 90.10716248 C-21.31745647 85.40621297 -22.62856827 80.95300928 -21.87077332 75.10716248 C-20.45891001 71.2637568 -18.63952732 68.7430319 -15.75358582 65.92356873 C-15.21362976 65.39320007 -14.67367371 64.86283142 -14.11735535 64.31639099 C-13.70598328 63.91734558 -13.29461121 63.51830017 -12.87077332 63.10716248 C-56.50415057 62.47224653 -98.07722152 65.54455307 -139.87077332 79.10716248 C-140.8356366 79.41428162 -141.80049988 79.72140076 -142.79460144 80.03782654 C-168.75697888 88.37005761 -193.85775617 99.3056249 -218.87077332 110.10716248 C-216.16573591 112.8392733 -213.46915368 115.53976404 -210.55827332 118.05247498 C-209.96417664 118.56664978 -209.37007996 119.08082458 -208.75798035 119.61058044 C-208.13520203 120.14570251 -207.51242371 120.68082458 -206.87077332 121.23216248 C-206.21576843 121.79693298 -205.56076355 122.36170349 -204.88591003 122.94358826 C-202.88336648 124.6677188 -200.8776708 126.38810289 -198.87077332 128.10716248 C-198.27039246 128.62214294 -197.6700116 129.13712341 -197.05143738 129.66770935 C-194.31555601 132.01099097 -191.5697482 134.33938294 -188.79655457 136.63841248 C-186.95708417 138.19054237 -185.15529067 139.78965784 -183.41374207 141.45091248 C-181.26173565 143.41070816 -179.48361971 144.83502751 -176.87077332 146.10716248 C-174.63536071 145.93100316 -174.63536071 145.93100316 -172.37858582 145.03684998 C-171.49952576 144.73794861 -170.6204657 144.43904724 -169.71476746 144.13108826 C-168.30699036 143.624245 -168.30699036 143.624245 -166.87077332 143.10716248 C-164.89334564 142.43400268 -162.91546249 141.76217969 -160.93717957 141.09153748 C-159.89005798 140.73084167 -158.8429364 140.37014587 -157.76408386 139.9985199 C-118.21715656 126.44711001 -78.73891205 119.70133766 -36.95671082 119.59544373 C-34.39311396 119.57853994 -31.8295251 119.5603824 -29.26594543 119.54104614 C-23.2886193 119.49890826 -17.31131846 119.46908555 -11.33389723 119.44572276 C-4.50867978 119.41832207 2.31640405 119.37443839 9.14152455 119.32943404 C23.13735185 119.23750216 37.13322142 119.16541194 51.12922668 119.10716248 C50.39736145 118.29311951 50.39736145 118.29311951 49.65071106 117.46263123 C49.01455872 116.74720154 48.37840637 116.03177185 47.72297668 115.29466248 C47.09069153 114.58696716 46.45840637 113.87927185 45.80696106 113.15013123 C42.67239213 109.33318233 41.90746779 105.92528609 42.25422668 101.10716248 C43.09304278 96.00599016 45.36522604 92.48975757 49.44172668 89.29466248 C54.26675048 87.16267522 59.11527457 86.35841051 64.21809387 88.08226013 C73.09659603 92.84362345 80.72793054 102.51955788 87.82722473 109.61985779 C89.58331629 111.37373112 91.3473122 113.11940037 93.11164856 114.86497498 C94.24169349 115.99209044 95.37126832 117.11967749 96.50032043 118.24778748 C97.0221843 118.76246582 97.54404816 119.27714417 98.08172607 119.80741882 C102.75125437 124.50638431 105.55944854 128.19111433 105.69172668 134.91966248 C105.73426575 135.89548279 105.77680481 136.8713031 105.82063293 137.87669373 C104.2259685 145.32747049 97.41307632 151.12384949 92.15657043 156.34544373 C91.51103714 156.99289047 90.86550385 157.64033722 90.20040894 158.30740356 C88.84734869 159.66181399 87.49180297 161.01374568 86.13386536 162.36326599 C84.06159409 164.4247684 82.00028758 166.49680625 79.93977356 168.5700531 C78.61684707 169.89165881 77.29330076 171.21264444 75.96907043 172.53294373 C75.35748581 173.14857681 74.74590118 173.7642099 74.11578369 174.39849854 C69.32618474 179.1361156 65.24719368 182.53478551 58.25032043 183.16966248 C53.19399519 183.02067315 49.34837295 181.29422595 45.75422668 177.79466248 C42.81498383 172.93360698 41.55102712 168.9440609 42.44563293 163.20091248 C44.01431435 158.3962654 47.61106593 154.62532323 51.12922668 151.10716248 C39.53114726 151.08378107 27.93307362 151.06611801 16.33497524 151.0553503 C10.94696648 151.05017704 5.55897408 151.04318312 0.17097473 151.03172302 C-5.0486358 151.02069317 -10.26823079 151.01484406 -15.4878521 151.01228523 C-17.45888958 151.01046656 -19.42992642 151.00691749 -21.40095711 151.00143242 C-39.59794096 150.95290237 -57.97833643 151.02527586 -76.05827332 153.29466248 C-77.07614929 153.42139343 -78.09402527 153.54812439 -79.14274597 153.67869568 C-101.27351878 156.62688957 -122.61684933 162.4289612 -143.87077332 169.10716248 C-143.87077332 169.76716248 -143.87077332 170.42716248 -143.87077332 171.10716248 C-141.34157639 172.85814497 -138.819556 174.46786389 -136.18327332 176.04466248 C-135.37599792 176.52975281 -134.56872253 177.01484314 -133.73698425 177.51463318 C-100.87828687 197.03038383 -68.70621706 207.63141155 -30.37077332 207.23216248 C-28.66114324 207.22209628 -26.95150731 207.21297696 -25.24186707 207.20481873 C-21.11802043 207.18313092 -16.99446467 207.14880945 -12.87077332 207.10716248 C-13.6037262 206.39269958 -13.6037262 206.39269958 -14.35148621 205.6638031 C-14.98820251 205.03667419 -15.62491882 204.40954529 -16.28092957 203.76341248 C-16.91393982 203.14272888 -17.54695007 202.52204529 -18.19914246 201.8825531 C-21.20377431 198.6914208 -21.76153036 196.07214194 -22.24577332 191.79466248 C-21.71807805 186.60565904 -20.2568127 182.36662152 -16.39811707 178.71263123 C-12.28125712 175.9583254 -8.26187593 175.6389758 -3.39811707 175.57591248 C3.40015227 177.004915 8.36424531 183.03531306 13.08235168 187.75950623 C13.82378418 188.49665359 14.56521667 189.23380096 15.32911682 189.99328613 C16.88807398 191.54652165 18.444446 193.10235569 19.99836731 194.66062927 C22.37665818 197.04209054 24.76799373 199.40989139 27.16047668 201.77708435 C28.67691185 203.29124736 30.19256414 204.80619492 31.70735168 206.32200623 C32.42191528 207.02736008 33.13647888 207.73271393 33.87269592 208.45944214 C38.4404148 213.07019166 41.38289454 216.7603618 41.50422668 223.48216248 C41.53258606 224.19114685 41.56094543 224.90013123 41.59016418 225.63059998 C40.24236781 232.87214998 34.75007449 237.92942104 29.73078918 242.90403748 C29.01820953 243.6194873 28.30562988 244.33493713 27.57145691 245.07206726 C26.07063482 246.57492151 24.56605485 248.07403137 23.05793762 249.56956482 C20.75783189 251.85358249 18.47419917 254.15319468 16.19172668 256.45481873 C14.72654195 257.91802134 13.26042704 259.38029324 11.79328918 260.84153748 C11.1149704 261.52592896 10.43665161 262.21032043 9.73777771 262.91545105 C5.00792752 267.57620453 1.06617349 270.77557171 -5.74577332 271.54466248 C-10.38369451 271.32253981 -14.21442914 269.99502723 -17.87077332 267.10716248 C-20.64869557 263.50990922 -21.73228159 260.07660454 -22.37077332 255.60716248 C-21.4240721 248.98025396 -18.58660125 244.72649215 -13.87077332 240.10716248 C-14.89735046 240.08734314 -15.92392761 240.0675238 -16.98161316 240.04710388 C-20.88464599 239.96954646 -24.78737621 239.88109793 -28.69010925 239.78977966 C-30.36159685 239.75209614 -32.03314905 239.71715293 -33.70475769 239.68528748 C-48.60822616 239.3979917 -63.57566785 238.61207619 -78.18327332 235.41966248 C-78.95485779 235.25232605 -79.72644226 235.08498962 -80.52140808 234.9125824 C-112.20862493 227.68567329 -141.52407545 212.24691605 -167.73014832 193.32981873 C-168.67785095 192.64641418 -168.67785095 192.64641418 -169.6446991 191.94920349 C-170.84039113 191.08231888 -172.03181423 190.20950128 -173.21794128 189.32957458 C-176.34241581 187.04544045 -179.12815244 185.13408249 -182.87077332 184.10716248 C-185.85630126 184.79772819 -185.85630126 184.79772819 -188.94499207 186.26341248 C-190.1524408 186.78443542 -191.35988953 187.30545837 -192.60392761 187.8422699 C-193.24647491 188.12911652 -193.88902222 188.41596313 -194.55104065 188.71150208 C-196.59345772 189.62286234 -198.64405656 190.51277981 -200.69816589 191.39744568 C-203.60873438 192.65199567 -206.51612507 193.91351259 -209.42155457 195.17991638 C-216.59974092 198.29935534 -223.82398048 201.30806095 -231.05827332 204.29466248 C-231.76822449 204.5878537 -232.47817566 204.88104492 -233.2096405 205.18312073 C-281.62654337 225.123334 -331.18501605 238.92757881 -383.87077332 239.41966248 C-384.936828 239.44866638 -386.00288269 239.47767029 -387.10124207 239.5075531 C-393.62681428 239.56024406 -397.57652257 239.01193961 -402.87077332 235.10716248 C-406.35892207 231.44013429 -407.16357232 228.53319897 -407.37077332 223.60716248 C-407.18437634 218.70758494 -406.22290019 215.8317479 -402.87077332 212.10716248 C-398.36081564 208.14386634 -394.07326061 207.91942542 -388.28483582 207.71263123 C-386.71310256 207.64686606 -385.14140779 207.5801763 -383.56974792 207.51268005 C-382.74264313 207.47784515 -381.91553833 207.44301025 -381.06336975 207.40711975 C-320.30630653 204.74604198 -266.90641579 185.39992616 -211.87077332 161.10716248 C-211.63811855 158.91586536 -211.63811855 158.91586536 -213.67155457 157.25950623 C-218.97870913 152.57963587 -224.362288 148.02659931 -229.86296082 143.57591248 C-233.96949474 140.20535476 -237.9928245 136.74155149 -242.01237488 133.26805115 C-243.12039701 132.31218248 -244.23414074 131.36289613 -245.35417175 130.42112732 C-246.71966294 129.23808263 -248.00833995 127.96775512 -249.28483582 126.68919373 C-252.90479729 124.47456473 -255.89072588 125.3248824 -259.87077332 126.10716248 C-262.27713424 126.80274086 -264.66380682 127.56970362 -267.02702332 128.40013123 C-268.38067528 128.86780991 -269.73443953 129.33516367 -271.08830261 129.80223083 C-272.13623489 130.16814835 -272.13623489 130.16814835 -273.20533752 130.54145813 C-294.68870653 138.01402645 -316.36739839 143.65959163 -338.87077332 147.10716248 C-339.8464325 147.25814392 -340.82209167 147.40912537 -341.82731628 147.56468201 C-355.41204349 149.58766066 -368.90392992 150.42308904 -382.62077332 150.54466248 C-383.34036224 150.55678772 -384.05995117 150.56891296 -384.80134583 150.58140564 C-386.86158019 150.61105227 -388.91975721 150.61184655 -390.98014832 150.60325623 C-392.75857117 150.60603577 -392.75857117 150.60603577 -394.57292175 150.60887146 C-399.50042238 149.85924059 -402.68497416 147.63391022 -405.71842957 143.72825623 C-407.80646013 138.97887145 -407.48998289 134.18468096 -406.87077332 129.10716248 C-404.69004939 124.50341197 -402.41377316 122.29518368 -397.87077332 120.10716248 C-394.96181746 119.57204764 -392.06045036 119.43482875 -389.10905457 119.29856873 C-387.34529583 119.19278434 -385.5815428 119.08690496 -383.8177948 118.98094177 C-382.89779694 118.93061798 -381.97779907 118.88029419 -381.02992249 118.82844543 C-347.86135232 116.97833908 -316.57951465 111.09807315 -284.87077332 101.10716248 C-295.91407218 91.9008942 -308.89653523 85.15399447 -321.87077332 79.10716248 C-323.0090155 78.5734906 -324.14725769 78.03981873 -325.31999207 77.48997498 C-345.47677532 68.45336831 -365.70235975 64.18861109 -387.67424011 62.92845154 C-394.42466677 62.48054009 -399.44197044 61.79853863 -404.18327332 56.54466248 C-407.62052132 51.57974869 -407.45724681 47.03054474 -406.87077332 41.10716248 C-404.97280301 36.9316278 -402.43035278 33.88937315 -398.25749207 31.79856873 C-365.85003794 22.41048463 -320.41189094 42.69542294 -292.51676941 57.64085388 C-279.69389507 64.74679439 -267.6723806 73.15268156 -255.81095886 81.7419281 C-255.17069763 82.19245544 -254.5304364 82.64298279 -253.87077332 83.10716248 C-252.9570697 83.87085144 -252.04336609 84.63454041 -251.10197449 85.42137146 C-247.94097436 87.5034916 -247.94097436 87.5034916 -244.39274597 86.39060974 C-243.09458898 85.84646961 -241.80896538 85.27181109 -240.53483582 84.67356873 C-239.83153641 84.37033188 -239.128237 84.06709503 -238.40362549 83.75466919 C-236.08943645 82.75078034 -233.79377575 81.7100014 -231.49577332 80.66966248 C-229.87710873 79.96241431 -228.25704946 79.2583502 -226.63566589 78.55735779 C-223.31452922 77.11933731 -219.99879989 75.66985538 -216.68669128 74.21116638 C-209.69236081 71.14185741 -202.6354359 68.2293965 -195.55827332 65.35716248 C-194.90710541 65.09256226 -194.2559375 64.82796204 -193.58503723 64.55534363 C-141.44969862 43.42856298 -89.26741998 31.78527964 -32.93327332 30.54466248 C-31.07454245 30.50133806 -29.2158184 30.45772008 -27.35710144 30.4138031 C-22.86172993 30.30821477 -18.36628567 30.20656556 -13.87077332 30.10716248 C-14.28794617 29.63085388 -14.70511902 29.15454529 -15.13493347 28.6638031 C-15.67940125 28.03667419 -16.22386902 27.40954529 -16.78483582 26.76341248 C-17.32575867 26.14272888 -17.86668152 25.52204529 -18.42399597 24.8825531 C-21.9305845 20.57949678 -22.42472414 16.55434556 -21.87077332 11.10716248 C-20.45797592 6.33226494 -18.53195001 3.06456997 -14.12077332 0.60716248 C-9.36487931 -1.35684561 -4.80109512 -2.29135077 0 0 Z " fill="#000000" transform="translate(406.8707733154297,120.89283752441406)"/>
<path d="M0 0 C0.83076034 -0.00581376 1.66152068 -0.01162753 2.51745558 -0.01761746 C5.2956874 -0.03219225 8.07303224 -0.01834409 10.85125732 -0.00457001 C12.86536739 -0.00917991 14.87947409 -0.01553343 16.89357376 -0.02347898 C22.42411369 -0.04018301 27.95437765 -0.03192092 33.48491859 -0.01953411 C39.45092263 -0.01049041 45.41687895 -0.02444999 51.38287354 -0.0354538 C62.39325335 -0.05222222 73.40355111 -0.05075547 84.41393411 -0.03980792 C94.58563754 -0.02974398 104.75730873 -0.02711969 114.92901611 -0.0318985 C115.60384243 -0.03220404 116.27866874 -0.03250958 116.97394434 -0.03282438 C119.7133142 -0.03406974 122.45268404 -0.03534334 125.19205387 -0.03666343 C150.88718105 -0.04889825 176.58225221 -0.03780747 202.27737075 -0.01627585 C225.10378743 0.00270646 247.93011486 0.00100794 270.75653076 -0.01811981 C296.40478764 -0.03954035 322.05299503 -0.04803055 347.70125961 -0.03567076 C350.4356257 -0.0343879 353.1699918 -0.03313653 355.90435791 -0.0318985 C356.57762396 -0.03158219 357.25089001 -0.03126588 357.94455805 -0.03093999 C368.10963839 -0.02639092 378.27468293 -0.03170965 388.4397583 -0.04181671 C399.99842283 -0.05325214 411.55698708 -0.05001276 423.11563969 -0.02869374 C429.01432337 -0.01817306 434.91282579 -0.01407901 440.81150818 -0.02729034 C446.2100351 -0.03919871 451.60821251 -0.03267702 457.00670767 -0.01138014 C458.96083401 -0.00690752 460.91498979 -0.00919507 462.86909723 -0.01888329 C465.52427659 -0.03103874 468.17825726 -0.01858083 470.83337402 0 C471.59299171 -0.00936466 472.3526094 -0.01872933 473.1352458 -0.02837777 C478.60227948 0.04814517 482.85155808 1.45351627 487.41668701 4.50336456 C491.34733179 8.92730866 491.9201929 12.234615 491.93426514 18.06586456 C491.94477905 19.16462921 491.94477905 19.16462921 491.95550537 20.28559113 C491.97302098 22.69190839 491.96148656 25.09703665 491.94793701 27.50336456 C491.9506338 29.18435643 491.95451778 30.86534677 491.95953369 32.54633331 C491.96541999 36.06341199 491.9568941 39.58008336 491.93817139 43.09711456 C491.91538202 47.59638645 491.92850981 52.09470383 491.95246124 56.59394073 C491.96694292 60.06333303 491.96230245 63.53250051 491.95195007 67.00189972 C491.94928932 68.66042953 491.95252958 70.31898001 491.96186829 71.97748566 C491.97207347 74.29915877 491.9564798 76.61930467 491.93426514 78.94086456 C491.93108276 80.2595755 491.92790039 81.57828644 491.92462158 82.93695831 C491.2077101 87.97067274 489.30999007 91.03547826 485.29376882 94.1492725 C481.54079421 95.91560153 478.16573639 95.91887725 474.10322666 95.8836813 C473.26519842 95.88834122 472.42717018 95.89300113 471.56374714 95.89780226 C468.74288658 95.90979622 465.92250376 95.90033988 463.10163879 95.89104462 C461.0639453 95.8952156 459.02625413 95.90069182 456.98856729 95.90736443 C451.37902424 95.92186856 445.76962749 95.91755882 440.16007626 95.91019762 C434.11430728 95.90548052 428.06857062 95.91796283 422.02281189 95.92821503 C410.86012982 95.94444086 399.69749326 95.94684241 388.53480563 95.94191003 C378.22253794 95.93735559 367.91028768 95.93794862 357.59802055 95.94375038 C356.21557746 95.94450724 354.83313436 95.94526322 353.45069126 95.94601833 C351.36756007 95.9471635 349.28442889 95.94831338 347.20129771 95.94947757 C327.83022965 95.96018508 308.45916741 95.96490523 289.08809757 95.95700741 C288.35764599 95.95671023 287.62719442 95.95641306 286.87460794 95.95610688 C280.94255147 95.95365786 275.01049506 95.95104632 269.07843866 95.94842275 C245.93701016 95.93831942 222.79565422 95.94667632 199.65423584 95.9699173 C173.66286257 95.99597817 147.67153298 96.008841 121.68014616 96.00172955 C118.90982052 96.00101347 116.13949488 96.00033908 113.36916924 95.9996891 C112.68702994 95.99951929 112.00489064 95.99934948 111.30208045 95.99917453 C100.99637942 95.9968697 90.69071888 96.00485725 80.38502693 96.01798058 C68.66741043 96.03287512 56.94987269 96.03338209 45.23225243 96.01590966 C39.25079868 96.00736965 33.26952661 96.0053232 27.28808212 96.02056122 C21.8161476 96.03432897 16.34455174 96.02974754 10.8726372 96.01032198 C8.88951773 96.00653726 6.90637164 96.00955444 4.92327572 96.01993363 C2.23376778 96.03301284 -0.45455549 96.02160161 -3.1440115 96.00393581 C-4.30704449 96.01841158 -4.30704449 96.01841158 -5.4935731 96.03317979 C-10.66711303 95.96309529 -13.59194919 94.75963738 -17.58331299 91.50336456 C-20.77527994 87.56128209 -21.01967367 83.9580425 -20.98736572 79.05438995 C-20.99422897 78.32202621 -21.00109222 77.58966248 -21.00816345 76.8351059 C-21.02640655 74.4235448 -21.02259765 72.01263585 -21.01690674 69.60102081 C-21.02146984 67.91859985 -21.0267758 66.23618074 -21.03279114 64.55376434 C-21.04171739 61.03078379 -21.03930482 57.50802997 -21.02935791 53.98505402 C-21.01787029 49.47794065 -21.03807855 44.97161099 -21.06727505 40.46460056 C-21.0856516 36.9909394 -21.0853417 33.51746552 -21.07963753 30.04376793 C-21.07948448 28.38243702 -21.08551499 26.72109327 -21.097929 25.05980873 C-21.11286494 22.73328866 -21.10214449 20.40820974 -21.08502197 18.0817337 C-21.09468994 17.40050446 -21.10435791 16.71927521 -21.11431885 16.01740265 C-21.0380215 11.04815231 -19.87497873 8.20532627 -16.58331299 4.50336456 C-11.19341907 0.90302693 -6.37971433 -0.07864994 0 0 Z M9.41668701 31.50336456 C9.41668701 42.72336456 9.41668701 53.94336456 9.41668701 65.50336456 C158.57668701 65.50336456 307.73668701 65.50336456 461.41668701 65.50336456 C461.41668701 54.28336456 461.41668701 43.06336456 461.41668701 31.50336456 C312.25668701 31.50336456 163.09668701 31.50336456 9.41668701 31.50336456 Z " fill="#000000" transform="translate(20.58331298828125,416.4966354370117)"/>
<path d="M0 0 C0.83802824 -0.00465992 1.67605649 -0.00931984 2.53947952 -0.01412097 C5.36034008 -0.02611492 8.1807229 -0.01665859 11.00158787 -0.00736332 C13.03928136 -0.01153431 15.07697253 -0.01701052 17.11465937 -0.02368313 C22.72420242 -0.03818726 28.33359917 -0.03387752 33.9431504 -0.02651632 C39.98891938 -0.02179923 46.03465604 -0.03428153 52.08041477 -0.04453373 C63.24309685 -0.06075957 74.4057334 -0.06316111 85.56842104 -0.05822874 C95.88068872 -0.0536743 106.19293899 -0.05426732 116.50520611 -0.06006908 C117.8876492 -0.06082594 119.2700923 -0.06158192 120.6525354 -0.06233703 C122.73566659 -0.0634822 124.81879777 -0.06463208 126.90192895 -0.06579627 C146.27299701 -0.07650379 165.64405925 -0.08122393 185.01512909 -0.07332611 C185.74558067 -0.07302894 186.47603225 -0.07273176 187.22861872 -0.07242559 C193.1606752 -0.06997657 199.0927316 -0.06736502 205.024788 -0.06474145 C228.1662165 -0.05463812 251.30757244 -0.06299502 274.44899082 -0.086236 C300.44036409 -0.11229687 326.43169368 -0.1251597 352.4230805 -0.11804825 C355.19340614 -0.11733217 357.96373178 -0.11665779 360.73405743 -0.1160078 C361.41619672 -0.115838 362.09833602 -0.11566819 362.80114621 -0.11549323 C373.10684724 -0.11318841 383.41250778 -0.12117595 393.71819973 -0.13429928 C405.43581623 -0.14919382 417.15335397 -0.14970079 428.87097424 -0.13222837 C434.85242798 -0.12368835 440.83370005 -0.1216419 446.81514454 -0.13687992 C452.28707906 -0.15064768 457.75867492 -0.14606624 463.23058946 -0.12664068 C465.21370893 -0.12285596 467.19685502 -0.12587314 469.17995095 -0.13625234 C471.86945888 -0.14933155 474.55778215 -0.13792031 477.24723816 -0.12025452 C478.02259349 -0.12990503 478.79794882 -0.13955554 479.59679976 -0.14949849 C484.77033969 -0.07941399 487.69517586 1.12404392 491.68653965 4.38031673 C494.8785066 8.32239921 495.12290033 11.9256388 495.09059238 16.82929134 C495.10088726 17.92783695 495.10088726 17.92783695 495.11139011 19.0485754 C495.12963321 21.46013649 495.12582431 23.87104545 495.1201334 26.28266048 C495.1246965 27.96508145 495.13000246 29.64750055 495.1360178 31.32991695 C495.14494406 34.85289751 495.14253148 38.37565132 495.13258457 41.89862728 C495.12109695 46.40574065 495.14130521 50.91207031 495.17050171 55.41908073 C495.18887826 58.8927419 495.18856836 62.36621577 495.18286419 65.83991337 C495.18271114 67.50124428 495.18874166 69.16258803 495.20115566 70.82387257 C495.2160916 73.15039264 495.20537115 75.47547156 495.18824863 77.80194759 C495.1979166 78.48317684 495.20758457 79.16440609 495.21754551 79.86627865 C495.14124816 84.83552899 493.9782054 87.67835503 490.68653965 91.38031673 C485.29664573 94.98065437 480.48294099 95.96233124 474.10322666 95.8836813 C473.27246632 95.88949506 472.44170598 95.89530882 471.58577108 95.90129876 C468.80753926 95.91587354 466.03019442 95.90202539 463.25196934 95.8882513 C461.23785927 95.89286121 459.22375257 95.89921473 457.2096529 95.90716028 C451.67911298 95.9238643 446.14884901 95.91560222 440.61830807 95.90321541 C434.65230403 95.89417171 428.68634771 95.90813129 422.72035313 95.91913509 C411.70997331 95.93590352 400.69967555 95.93443677 389.68929255 95.92348922 C379.51758912 95.91342527 369.34591794 95.91080099 359.17421055 95.9155798 C358.49938423 95.91588534 357.82455792 95.91619088 357.12928233 95.91650568 C354.38991246 95.91775104 351.65054262 95.91902464 348.91117279 95.92034473 C323.21604561 95.93257955 297.52097445 95.92148877 271.82585591 95.89995714 C248.99943923 95.88097484 226.1731118 95.88267336 203.3466959 95.90180111 C177.69843902 95.92322165 152.05023163 95.93171185 126.40196705 95.91935205 C123.66760096 95.91806919 120.93323486 95.91681783 118.19886875 95.9155798 C117.5256027 95.91526349 116.85233666 95.91494718 116.15866861 95.91462128 C105.99358828 95.91007222 95.82854373 95.91539095 85.66346836 95.92549801 C74.10480383 95.93693344 62.54623958 95.93369406 50.98758698 95.91237503 C45.08890329 95.90185436 39.19040087 95.8977603 33.29171848 95.91097164 C27.89319156 95.92288001 22.49501415 95.91635832 17.09651899 95.89506143 C15.14239266 95.89058882 13.18823687 95.89287637 11.23412943 95.90256459 C8.57895008 95.91472004 5.92496941 95.90226213 3.26985264 95.8836813 C2.51023495 95.89304596 1.75061727 95.90241063 0.96798086 95.91205907 C-4.49905282 95.83553613 -8.74833142 94.43016503 -13.31346035 91.38031673 C-17.24410512 86.95637264 -17.81696624 83.6490663 -17.83103848 77.81781673 C-17.83804775 77.08530697 -17.84505703 76.3527972 -17.85227871 75.59809017 C-17.86979432 73.19177291 -17.85825989 70.78664465 -17.84471035 68.38031673 C-17.84740714 66.69932487 -17.85129112 65.01833453 -17.85630703 63.33734798 C-17.86219333 59.8202693 -17.85366744 56.30359794 -17.83494473 52.78656673 C-17.81215536 48.28729484 -17.82528315 43.78897747 -17.84923458 39.28974056 C-17.86371626 35.82034827 -17.85907579 32.35118079 -17.84872341 28.88178158 C-17.84606266 27.22325177 -17.84930292 25.56470129 -17.85864162 23.90619564 C-17.86884681 21.58452253 -17.85325314 19.26437663 -17.83103848 16.94281673 C-17.8278561 15.6241058 -17.82467373 14.30539486 -17.82139492 12.94672298 C-17.10448344 7.91300855 -15.20676341 4.84820304 -11.19054216 1.7344088 C-7.43756755 -0.03192023 -4.06250973 -0.03519596 0 0 Z M12.68653965 30.38031673 C12.68653965 41.60031673 12.68653965 52.82031673 12.68653965 64.38031673 C161.84653965 64.38031673 311.00653965 64.38031673 464.68653965 64.38031673 C464.68653965 53.16031673 464.68653965 41.94031673 464.68653965 30.38031673 C315.52653965 30.38031673 166.36653965 30.38031673 12.68653965 30.38031673 Z " fill="#000000" transform="translate(17.31346035003662,-0.38031673431396484)"/>
</svg>
